<?xml version="1.0" encoding="UTF-8" standalone="no"?>
<svg width="180px" height="180px" viewBox="0 0 180 180" version="1.1" xmlns="http://www.w3.org/2000/svg" xmlns:xlink="http://www.w3.org/1999/xlink">
    <!-- Generator: Sketch 3.8.1 (29687) - http://www.bohemiancoding.com/sketch -->
    <title>hiragana_mu</title>
    <desc>Created with Sketch.</desc>
    <defs></defs>
    <g id="Page-1" stroke="none" stroke-width="1" fill="none" fill-rule="evenodd" stroke-linecap="round" stroke-linejoin="round">
        <g id="hiragana_mu" stroke="#F597B1" stroke-width="16">
            <path d="M33,48.8377273 C52.5,50 77.5,50 90,47.5" id="Path-83"></path>
            <path d="M63,29 C64.4999982,43.5 64.9999982,68.5 62.9999982,88 C60.9999982,107.5 51.0000005,116 44.0000002,116 C37,116 28.5,110 29.5,97.5 C30.5,85 46.0000018,75 56,80.5 C65.9999982,86 62.9999982,91.5 56.0000001,112.5 C49.000002,133.5 58.4999982,152 93.4999982,152 C128.499998,152 141.499998,136 139.999998,117.5" id="Path-35"></path>
            <path d="M127.5,43.5 C137,52.5 143.5,58 150,69" id="Path-85"></path>
        </g>
    </g>
</svg>